<svg xmlns="http://www.w3.org/2000/svg"><style>:root svg:not(:target){display:none}</style><svg viewBox="0 0 20 20" fill="none" id="OK-logo"><path fill-rule="evenodd" clip-rule="evenodd" d="M1.4 1.4c-1.4 1.4-1.4 3.7-1.4 8.2v.9c0 4.5 0 6.7 1.4 8.1 1.4 1.4 3.7 1.4 8.2 1.4h.9c4.5 0 6.7 0 8.1-1.4 1.4-1.4 1.4-3.7 1.4-8.2v-.9c0-4.5 0-6.7-1.4-8.1-1.4-1.4-3.7-1.4-8.2-1.4h-.9c-4.5 0-6.7 0-8.1 1.4Zm8.6 8.8a3 3 0 1 0 0-6 3 3 0 0 0 0 6Zm0-4.3a1.3 1.3 0 0 1 0 2.5c-.7 0-1.2-.5-1.2-1.2s.5-1.3 1.2-1.3Zm1.2 6.8 1.8-.7c.4-.3.5-.9.3-1.3a.9.9 0 0 0-1.3-.2c-1.2.7-2.8.7-4 0a.9.9 0 0 0-1.3.2c-.2.4 0 1 .3 1.2.6.4 1.2.6 1.8.8l-1.8 1.6c-.3.4-.3 1 0 1.3l.6.3c.3 0 .5-.1.7-.3l1.6-1.7 1.7 1.7a.9.9 0 0 0 1.3-1.3l-1.8-1.6Z" fill="#BDBDBD"></path></svg><svg viewBox="0 0 20 20" fill="none" id="VK-logo"><path fill-rule="evenodd" clip-rule="evenodd" d="M1.4 1.4c-1.4 1.4-1.4 3.7-1.4 8.2v.8c0 4.5 0 6.8 1.4 8.2 1.4 1.4 3.7 1.4 8.2 1.4h.8c4.5 0 6.8 0 8.2-1.4 1.4-1.4 1.4-3.7 1.4-8.2v-.8c0-4.5 0-6.8-1.4-8.2-1.4-1.4-3.7-1.4-8.2-1.4h-.8c-4.5 0-6.8 0-8.2 1.4Zm2 4.7c0 5.2 2.7 8.3 7.2 8.3h.3v-3c1.7.2 3 1.4 3.4 3h2.4a6.6 6.6 0 0 0-3.4-4.2c1-.6 2.6-2 3-4.1h-2.3c-.5 1.6-1.9 3.1-3.2 3.3v-3.4h-2.1v5.8c-1.3-.4-3-2-3-5.8h-2.3Z" fill="#BDBDBD"></path></svg><svg viewBox="0 0 20 16" fill="none" id="add-to-basket"><path fill-rule="evenodd" clip-rule="evenodd" d="M13.7 13.5h1.3v.2a2.7 2.7 0 0 1-2.6 2.3h-8.8c-1.3 0-2.4-1-2.6-2.3l-.8-5.7-.2-1.3h4.6l-.3-2.7a3.7 3.7 0 0 1 7.3-1h-1.4a2.3 2.3 0 0 0-4.5.9l.2 2.8h3.6v1.3h-3.4l.2 2.7h3.4v-.2h1.4v.2h1.4v1.3h-1.6l-.2 2.7h1.7c.6 0 1.2-.5 1.3-1.2Zm-9-5.5h-3.2l.4 2.7h3l-.2-2.7Zm2 6.7-.4-2.7h3.2l-.2 2.7h-2.7Zm-1.7-2.7.2 2.7h-1.6c-.6 0-1.2-.5-1.3-1.2l-.2-1.5h3Zm10.7-2v-2.8h-2.7v-1.4h2.8v-2.8h1.4v2.8h2.8v1.4h-2.8v2.8h-1.4Z" fill="#fff"></path></svg><svg viewBox="0 0 13 16" fill="none" id="address"><path fill-rule="evenodd" clip-rule="evenodd" d="M11.8 6.5c0 2.3-1.4 4.4-3 6a17.5 17.5 0 0 1-2.3 2 17 17 0 0 1-2.4-2c-1.5-1.6-2.9-3.7-2.9-6a5.3 5.3 0 1 1 10.6 0Zm1.2 0c0 5.6-6.5 9.5-6.5 9.5s-6.5-4-6.5-9.5a6.5 6.5 0 0 1 13 0Zm-4.2 0a2.3 2.3 0 1 1-4.6 0 2.3 2.3 0 0 1 4.6 0Zm1.2 0a3.5 3.5 0 1 1-7 0 3.5 3.5 0 0 1 7 0Z" fill="#7859CF"></path></svg><svg viewBox="0 0 10 10" fill="none" id="arrow-page"><path fill-rule="evenodd" clip-rule="evenodd" d="m5.8 0 1.2 1.2-3.6 3.8 3.6 3.8-1.2 1.2-4.8-5 4.8-5Z" fill="#7859CF"></path></svg><svg viewBox="0 0 20 20" fill="none" id="arrow-slider"><path fill-rule="evenodd" clip-rule="evenodd" d="m6.3 0-1.3 1.3 8.4 8.7-8.4 8.7 1.3 1.3 9.7-10-9.7-10Z" fill="#7859CF"></path></svg><svg viewBox="0 0 10 10" fill="none" id="arrow-sorting"><path fill-rule="evenodd" clip-rule="evenodd" d="m0 4.2 1.2-1.2 3.8 3.6 3.8-3.6 1.2 1.2-5 4.8-5-4.8Z" fill="#7859CF"></path></svg><svg viewBox="0 0 16 16" fill="none" id="basket"><path fill-rule="evenodd" clip-rule="evenodd" d="m5.7 3.9.2 2.8h4.1l.2-2.8a2.3 2.3 0 1 0-4.6 0Zm5.7 2.8.3-2.7a3.7 3.7 0 1 0-7.4 0l.3 2.7h-4.6l.2 1.3.8 5.7a2.7 2.7 0 0 0 2.6 2.3h8.8c1.3 0 2.4-1 2.6-2.3l.8-5.7.2-1.3h-4.6Zm0 1.3h-.1l-.2 2.7h3l.4-2.7h-3.2Zm-1.6 0h-3.7l.2 2.7h3.4l.3-2.7Zm-5.1 0h-3.2l.4 2.7h3l-.2-2.7Zm2 6.7-.4-2.7h3.2l-.2 2.7h-2.7Zm4.2-2.7-.2 2.7h1.7c.6 0 1.2-.5 1.3-1.2l.2-1.5h-3Zm-5.8 0 .2 2.7h-1.7c-.6 0-1.2-.5-1.3-1.2l-.2-1.5h3Z" fill="#333"></path></svg><svg viewBox="0 0 52 56" fill="none" id="feature-eco-friendly"><path fill-rule="evenodd" clip-rule="evenodd" d="M41.7 22.1c.8-6.5 1.5-12.8 7.3-18.1-26.5 0-34.2 8.1-38 14-8.5 13-1 25.7.7 28a808.6 808.6 0 0 0-4.7 9.7l.9.4 2-4 2.6-5.3c2.6.8 14.5 4.2 22-4.7 5.7-6.7 6.5-13.4 7.2-19.9Z" fill="#F0EBFF"></path><path fill-rule="evenodd" clip-rule="evenodd" d="M8.2 41c4-7.7 8.5-16 13-21l.8.7c-4.6 5-9 13.3-13 21a23.7 23.7 0 0 0 7 1.3c4.5.1 9.8-1 13.7-5.6 5.5-6.5 6.3-13 7-19.5.7-5.9 1.4-11.7 6-16.9a59.2 59.2 0 0 0-24.8 4.7c-5.5 2.7-8.2 6-10 8.8-4.6 7-4.4 13.8-3 19a29 29 0 0 0 3.3 7.5Zm-.5 1c-1.6-2.2-9.2-15-.7-28 3.8-5.8 11.2-13.7 36.6-14h1.4l-1 1c-4.9 5.1-5.6 11-6.3 17.1a33.6 33.6 0 0 1-7.2 19.9c-7.5 8.9-19.4 5.5-22 4.7l-2.5 5.3-2 4-.9-.4a848.3 848.3 0 0 0 4.6-9.6Z" fill="#7859CF"></path></svg><svg viewBox="0 0 52 56" fill="none" id="feature-energizing"><path fill-rule="evenodd" clip-rule="evenodd" d="m25 35.2 18-31.2-34 26.7 16 4.5Zm6-10.4-18 31.2 34-26.7-16-4.5Z" fill="#F0EBFF"></path><path fill-rule="evenodd" clip-rule="evenodd" d="m39.1 0-34.1 26.7 16 4.5-12.1 20.8 34.1-26.7-16-4.5 12.1-20.8Zm1.7 25.8-15.3-4.4 10.2-17.4-28.5 22.3 15.3 4.3-10.2 17.4 28.5-22.3Z" fill="#7859CF"></path></svg><svg viewBox="0 0 52 56" fill="none" id="feature-fast"><path fill-rule="evenodd" clip-rule="evenodd" d="M24 4h8v3h-3v3c3.8.2 7.4 1.3 10.5 3 1.9-1.9 6.3.2 4.8 3.7h-.1a23 23 0 0 1-16.2 39.3 23 23 0 0 1-16.3-39.3c-2-3 2.6-6.1 4.8-3.6 3.1-1.8 6.7-3 10.5-3v-3.1h-3v-3Z" fill="#F0EBFF"></path><path fill-rule="evenodd" clip-rule="evenodd" d="M27 1h-6v1h6v-1Zm-2 2h3v-3h-8v3h3v3c-3.5.2-6.7 1-9.6 2.6l-.1-.2c-1.6-1.7-3.9-1.4-5.3-.4-.8.6-1.4 1.3-1.6 2.3-.3 1-.2 2 .5 3l.1.2a23 23 0 1 0 34 0l.2-.4c.4-1 .5-2.1.2-3a4 4 0 0 0-1.7-2c-1.4-1-3.6-1.1-5 .3l-.1.2a22.9 22.9 0 0 0-9.6-2.6v-3Zm-1 4c-3.9 0-7.5 1-10.6 2.7l-.4.2a22 22 0 1 0 22 0l-.4-.2a21.9 21.9 0 0 0-10.6-2.7Zm-11.5 2a23 23 0 0 0-4.8 3.7 3 3 0 0 1-.4-1c-.5-2.3 2.3-4.3 4.3-3.3l.9.7Zm23 0a23 23 0 0 1 4.8 3.7l.3-1c.2-2.4-2.4-3.8-4.1-3.2-.4.1-.7.3-1 .6Zm-11.5 22a2 2 0 0 0 .9-3.8l-1-.2a2 2 0 0 0 .1 4Zm-.6-5-1.4-4.8v-.4l1.5-4.5.5-1.4.5 1.4 1.5 4.5v.3l-1.4 5h.4l7.6-13.3.8.4-7.4 13.5a3 3 0 1 1-2.5-.6Zm-.4-5 1 3.6 1-3.6-1-3-1 3Z" fill="#7859CF"></path></svg><svg viewBox="0 0 52 56" fill="none" id="feature-portable"><path d="M4 4h48l-4 44-20 8-20-8-4-44Z" fill="#F0EBFF"></path><path fill-rule="evenodd" clip-rule="evenodd" d="M1 0h-1v1l4 43 20 8 20-8 4-43v-1h-47Zm.1 1 .4 4h45l.4-4h-45.8Zm40.8 5h-35.8v1.1h-.4l-.5.1-.1-1.2h-3.6l3.5 37.3 19 7.6 19-7.6 3.6-37.3h-3.6l-.1 1.2h-1l.1-1.2Zm-35.8 5.6h-.5l.4 4.5h1l-.4-4.5h-.6Zm.8 8.9h-.5l.4 4.5h.5l.5-.1-.4-4.4h-.5Zm.8 8.9h-.5l.4 4.5h.4l.5-.1-.4-4.5h-.5Zm.8 8.9h-.5l.2 2.2 2 .8.1-.4.2-.5-1.4-.6-.1-1.6h-.5Zm5.8 4.2-.2.5 4 1.6.2-.5.1-.4-4-1.7-.1.5Zm8 3.2-.3.5 2 .8 2-.8-.2-.5-.2-.4-1.6.6-1.6-.6-.2.4Zm7.4-1.6.2.5 4-1.6-.2-.5-.2-.5-4 1.7.2.4Zm8-3.2.2.4 2-.8.1-2.2h-1l-.1 1.5-1.4.6.2.5Zm2.2-7h.5l.4-4.5h-1l-.4 4.4h.5Zm.8-9h.5l.4-4.4h-1l-.4 4.4h.5Zm.8-8.8h.5l.4-4.4h-.4l-.5-.1-.5 4.4h.5Z" fill="#7859CF"></path></svg><svg viewBox="0 0 12 16" fill="none" id="htmlacademy-logo"><path d="m11.2 5.8-5.2-3.3-5.2 3.3v-4.4l5.2-.6 5.2.6v4.4Zm0 .5-2 1.3-3.2-2v.6l2.7 1.8-.5.3-2.2-1.5v.6l1.7 1-.4.4-1.3-.8v.5l.8.6-.8.5-5.2-3.2 5.2-3.4 5.2 3.2Zm0 5.5-5.2 3.2-5.2-3.2v-4.8l5.2 3.3v.6l-3.6-2.3v.6l3.6 2.3v.6l-3.6-2.3v.6l3.6 2.3 3.6-2.3v-2.4l1.6-1v4.8Zm-5.2-11.8-6 .7v11.5l6 3.8 6-3.8v-11.5l-6-.7Z" fill="#BDBDBD"></path></svg><svg viewBox="0 0 16 16" fill="none" id="menu-close"><path fill-rule="evenodd" clip-rule="evenodd" d="m7.03 8-5.03-5.03.97-.97 5.03 5.03 5.03-5.03.97.97-5.03 5.03 5.03 5.03-.97.97-5.03-5.03-5.03 5.03-.97-.97 5.03-5.03Z" fill="#333"></path></svg><svg viewBox="0 0 16 16" fill="none" id="menu"><path fill-rule="evenodd" clip-rule="evenodd" d="M0 2h16v1.5h-16v-1.5Zm0 5.25h16v1.5h-16v-1.5Zm16 5.25h-16v1.5h16v-1.5Z" fill="#333"></path></svg><svg viewBox="0 0 13 16" fill="none" id="phone"><path fill-rule="evenodd" clip-rule="evenodd" d="M1.5 1.5c-1 .5-1.7 1.7-1.5 2.8l.4 1.8c1 3.1 2.5 5.8 4.8 8.1l1.4 1.2c.9.7 2.2.8 3.3.2l2.2-1.2c.9-.5 1.2-1.6.6-2.3l-1.9-2.6c-.5-.7-1.6-.8-2.4-.3l-1.3 1c-1.3-.9-2.1-2.2-2.2-3.6l1.5-.7c1-.4 1.4-1.3 1-2.1l-1.4-3c-.3-.8-1.4-1-2.3-.6l-2.2 1.3Zm-.2 2.5c-.1-.6.2-1.2.8-1.5l2.2-1.3c.2-.1.5 0 .6.2l1.3 3c.1.1 0 .3-.2.4l-2.4 1v.5c0 2.1 1.2 4 3 5.1l.4.3 2.1-1.7h.6l2 2.7c.1.2 0 .4-.2.6l-2.2 1.2c-.6.3-1.3.3-1.8-.1l-1.4-1.2a21 21 0 0 1-4.5-7.5l-.3-1.7Z" fill="#7859CF"></path></svg><svg viewBox="0 0 22 22" fill="none" id="pinterest-logo"><path d="M11 0a11 11 0 0 0-4 21.2c-.1-.8-.2-2.2 0-3.1l1.3-5.5s-.3-.6-.3-1.6c0-1.5.9-2.7 2-2.7 1 0 1.4.7 1.4 1.6 0 1-.6 2.3-1 3.6-.2 1.1.6 2 1.7 2 2 0 3.4-2 3.4-5 0-2.7-1.8-4.5-4.5-4.5-3.2 0-5 2.4-5 4.8 0 1 .4 2 .8 2.5v.3l-.2 1.2c0 .3-.2.3-.4.2-1.4-.6-2.2-2.7-2.2-4.3 0-3.4 2.5-6.6 7.2-6.6 3.9 0 6.8 2.7 6.8 6.3 0 3.8-2.4 6.9-5.7 6.9-1.1 0-2.1-.6-2.5-1.3l-.7 2.6c-.2 1-1 2.2-1.4 3a11 11 0 1 0 3.3-21.6Z" fill="#BDBDBD"></path></svg><svg viewBox="0 0 62 4" fill="none" id="slider-step"><path fill="#fff" d="M0 0h62v4h-62z"></path></svg><svg viewBox="0 0 16 16" fill="none" id="user"><path fill-rule="evenodd" clip-rule="evenodd" d="M10.7 4a2.7 2.7 0 1 1-5.4 0 2.7 2.7 0 0 1 5.4 0Zm1.3 0a4 4 0 1 1-8 0 4 4 0 0 1 8 0Zm-8.8 8.3c1.2-1 3-1.6 4.8-1.6 1.8 0 3.6.6 4.8 1.6a5 5 0 0 1 1.9 3.7h1.3c0-1.8-.8-3.5-2.3-4.7a8.9 8.9 0 0 0-5.7-2c-2.1 0-4.2.7-5.7 2a6.2 6.2 0 0 0-2.3 4.7h1.3a5 5 0 0 1 1.9-3.7Z" fill="#333"></path></svg></svg>