<svg viewBox="0 0 20 16" fill="none" xmlns="http://www.w3.org/2000/svg"><path fill-rule="evenodd" clip-rule="evenodd" d="M13.7 13.5h1.3v.2a2.7 2.7 0 0 1-2.6 2.3h-8.8c-1.3 0-2.4-1-2.6-2.3l-.8-5.7-.2-1.3h4.6l-.3-2.7a3.7 3.7 0 0 1 7.3-1h-1.4a2.3 2.3 0 0 0-4.5.9l.2 2.8h3.6v1.3h-3.4l.2 2.7h3.4v-.2h1.4v.2h1.4v1.3h-1.6l-.2 2.7h1.7c.6 0 1.2-.5 1.3-1.2Zm-9-5.5h-3.2l.4 2.7h3l-.2-2.7Zm2 6.7-.4-2.7h3.2l-.2 2.7h-2.7Zm-1.7-2.7.2 2.7h-1.6c-.6 0-1.2-.5-1.3-1.2l-.2-1.5h3Zm10.7-2v-2.8h-2.7v-1.4h2.8v-2.8h1.4v2.8h2.8v1.4h-2.8v2.8h-1.4Z" fill="#fff"/></svg>