<svg viewBox="0 0 16 16" fill="none" xmlns="http://www.w3.org/2000/svg"><path fill-rule="evenodd" clip-rule="evenodd" d="m5.7 3.9.2 2.8h4.1l.2-2.8a2.3 2.3 0 1 0-4.6 0Zm5.7 2.8.3-2.7a3.7 3.7 0 1 0-7.4 0l.3 2.7h-4.6l.2 1.3.8 5.7a2.7 2.7 0 0 0 2.6 2.3h8.8c1.3 0 2.4-1 2.6-2.3l.8-5.7.2-1.3h-4.6Zm0 1.3h-.1l-.2 2.7h3l.4-2.7h-3.2Zm-1.6 0h-3.7l.2 2.7h3.4l.3-2.7Zm-5.1 0h-3.2l.4 2.7h3l-.2-2.7Zm2 6.7-.4-2.7h3.2l-.2 2.7h-2.7Zm4.2-2.7-.2 2.7h1.7c.6 0 1.2-.5 1.3-1.2l.2-1.5h-3Zm-5.8 0 .2 2.7h-1.7c-.6 0-1.2-.5-1.3-1.2l-.2-1.5h3Z" fill="#333"/></svg>