<svg viewBox="0 0 52 56" fill="none" xmlns="http://www.w3.org/2000/svg"><path d="M4 4h48l-4 44-20 8-20-8-4-44Z" fill="#F0EBFF"/><path fill-rule="evenodd" clip-rule="evenodd" d="M1 0h-1v1l4 43 20 8 20-8 4-43v-1h-47Zm.1 1 .4 4h45l.4-4h-45.8Zm40.8 5h-35.8v1.1h-.4l-.5.1-.1-1.2h-3.6l3.5 37.3 19 7.6 19-7.6 3.6-37.3h-3.6l-.1 1.2h-1l.1-1.2Zm-35.8 5.6h-.5l.4 4.5h1l-.4-4.5h-.6Zm.8 8.9h-.5l.4 4.5h.5l.5-.1-.4-4.4h-.5Zm.8 8.9h-.5l.4 4.5h.4l.5-.1-.4-4.5h-.5Zm.8 8.9h-.5l.2 2.2 2 .8.1-.4.2-.5-1.4-.6-.1-1.6h-.5Zm5.8 4.2-.2.5 4 1.6.2-.5.1-.4-4-1.7-.1.5Zm8 3.2-.3.5 2 .8 2-.8-.2-.5-.2-.4-1.6.6-1.6-.6-.2.4Zm7.4-1.6.2.5 4-1.6-.2-.5-.2-.5-4 1.7.2.4Zm8-3.2.2.4 2-.8.1-2.2h-1l-.1 1.5-1.4.6.2.5Zm2.2-7h.5l.4-4.5h-1l-.4 4.4h.5Zm.8-9h.5l.4-4.4h-1l-.4 4.4h.5Zm.8-8.8h.5l.4-4.4h-.4l-.5-.1-.5 4.4h.5Z" fill="#7859CF"/></svg>