<svg viewBox="0 0 20 20" fill="none" xmlns="http://www.w3.org/2000/svg"><path fill-rule="evenodd" clip-rule="evenodd" d="M1.4 1.4c-1.4 1.4-1.4 3.7-1.4 8.2v.9c0 4.5 0 6.7 1.4 8.1 1.4 1.4 3.7 1.4 8.2 1.4h.9c4.5 0 6.7 0 8.1-1.4 1.4-1.4 1.4-3.7 1.4-8.2v-.9c0-4.5 0-6.7-1.4-8.1-1.4-1.4-3.7-1.4-8.2-1.4h-.9c-4.5 0-6.7 0-8.1 1.4Zm8.6 8.8a3 3 0 1 0 0-6 3 3 0 0 0 0 6Zm0-4.3a1.3 1.3 0 0 1 0 2.5c-.7 0-1.2-.5-1.2-1.2s.5-1.3 1.2-1.3Zm1.2 6.8 1.8-.7c.4-.3.5-.9.3-1.3a.9.9 0 0 0-1.3-.2c-1.2.7-2.8.7-4 0a.9.9 0 0 0-1.3.2c-.2.4 0 1 .3 1.2.6.4 1.2.6 1.8.8l-1.8 1.6c-.3.4-.3 1 0 1.3l.6.3c.3 0 .5-.1.7-.3l1.6-1.7 1.7 1.7a.9.9 0 0 0 1.3-1.3l-1.8-1.6Z" fill="#BDBDBD"/></svg>