<svg viewBox="0 0 20 20" fill="none" xmlns="http://www.w3.org/2000/svg"><path fill-rule="evenodd" clip-rule="evenodd" d="M1.4 1.4c-1.4 1.4-1.4 3.7-1.4 8.2v.8c0 4.5 0 6.8 1.4 8.2 1.4 1.4 3.7 1.4 8.2 1.4h.8c4.5 0 6.8 0 8.2-1.4 1.4-1.4 1.4-3.7 1.4-8.2v-.8c0-4.5 0-6.8-1.4-8.2-1.4-1.4-3.7-1.4-8.2-1.4h-.8c-4.5 0-6.8 0-8.2 1.4Zm2 4.7c0 5.2 2.7 8.3 7.2 8.3h.3v-3c1.7.2 3 1.4 3.4 3h2.4a6.6 6.6 0 0 0-3.4-4.2c1-.6 2.6-2 3-4.1h-2.3c-.5 1.6-1.9 3.1-3.2 3.3v-3.4h-2.1v5.8c-1.3-.4-3-2-3-5.8h-2.3Z" fill="#BDBDBD"/></svg>